<svg xmlns:xlink="http://www.w3.org/1999/xlink" xmlns="http://www.w3.org/2000/svg" class="Fill(engadgetFontGray) Stk(engadgetFontGray) socialLink:h_Fill(#fff) socialLink:h_Stk(#fff) Cur(p)" width="24" style="stroke-width:0;vertical-align:bottom" height="24" viewBox="0 0 24 24" data-icon="LogoYoutube"><path d="M9.73 15.117l-.002-6.18 5.944 3.1-5.943 3.08zm13.05-7.252s-.215-1.516-.875-2.184c-.836-.875-1.775-.88-2.203-.93-3.08-.223-7.697-.223-7.697-.223h-.01s-4.618 0-7.696.222c-.43.05-1.37.055-2.206.93-.66.67-.874 2.185-.874 2.185S1 9.645 1 11.425v1.67c0 1.78.22 3.56.22 3.56s.215 1.516.874 2.184c.837.875 1.937.847 2.426.94C6.28 19.947 12 20 12 20s4.623-.007 7.702-.23c.43-.05 1.367-.055 2.204-.93.66-.67.875-2.185.875-2.185s.22-1.78.22-3.56v-1.67c0-1.78-.22-3.56-.22-3.56z" stroke="#959799" fill="#959799" stroke-width="0px"></path></svg>