<svg xmlns:xlink="http://www.w3.org/1999/xlink" xmlns="http://www.w3.org/2000/svg" class="Fill(engadgetFontGray) Stk(engadgetFontGray) socialLink:h_Fill(#fff) socialLink:h_Stk(#fff) Cur(p)" width="24" style="stroke-width:0;vertical-align:bottom" height="24" viewBox="0 0 32 32" data-icon="LogoTwitter"><path d="M30.402 7.094c-1.058.47-2.198.782-3.392.928 1.218-.725 2.154-1.885 2.595-3.256-1.134.674-2.405 1.165-3.75 1.43-1.077-1.148-2.612-1.862-4.31-1.862-3.268 0-5.915 2.635-5.915 5.893 0 .464.056.91.155 1.34-4.915-.244-9.266-2.59-12.18-6.158-.51.87-.806 1.885-.806 2.96 0 2.044 1.045 3.847 2.633 4.905-.974-.032-1.883-.3-2.68-.736v.07c0 2.857 2.034 5.236 4.742 5.773-.498.138-1.022.21-1.56.21-.38 0-.75-.034-1.11-.103.75 2.344 2.93 4.042 5.518 4.09-2.024 1.58-4.57 2.523-7.333 2.523-.478 0-.952-.032-1.41-.085 2.613 1.674 5.72 2.65 9.054 2.65 10.872 0 16.814-8.976 16.814-16.765 0-.254-.008-.507-.018-.762 1.155-.83 2.155-1.868 2.95-3.047z" stroke="#959799" fill="#959799" stroke-width="0px"></path></svg>