<svg xmlns:xlink="http://www.w3.org/1999/xlink" xmlns="http://www.w3.org/2000/svg" class="Fill(engadgetFontGray) Stk(engadgetFontGray) socialLink:h_Fill(#fff) socialLink:h_Stk(#fff) Cur(p)" width="24" style="stroke-width:0;vertical-align:bottom" height="24" viewBox="0 0 24 24" data-icon="LogoInstagramEmblem1"><path d="M20.134 16.036c-.044.975-.207 1.504-.344 1.856-.182.467-.398.8-.748 1.15-.35.35-.683.566-1.15.748-.352.136-.88.3-1.856.344-1.054.048-1.37.058-4.04.058s-2.985-.01-4.04-.058c-.974-.045-1.503-.208-1.855-.344a3.104 3.104 0 0 1-1.15-.748 3.102 3.102 0 0 1-.746-1.15c-.137-.352-.3-.88-.345-1.856-.05-1.054-.06-1.37-.06-4.04s.01-2.985.06-4.04c.044-.974.207-1.503.344-1.855.18-.466.398-.8.747-1.15.35-.35.684-.565 1.15-.747.353-.137.882-.3 1.857-.344 1.054-.05 1.37-.06 4.04-.06s2.985.01 4.04.06c.974.044 1.503.206 1.856.343.466.182.8.398 1.15.748s.565.684.747 1.15c.137.353.3.882.344 1.857.048 1.054.058 1.37.058 4.04s-.01 2.985-.058 4.04m1.8-8.162c-.05-1.064-.218-1.79-.465-2.427a4.923 4.923 0 0 0-1.154-1.77 4.923 4.923 0 0 0-1.77-1.154c-.637-.247-1.364-.416-2.428-.464-1.066-.05-1.406-.06-4.12-.06-2.716 0-3.057.01-4.123.06-1.064.048-1.79.217-2.427.464a4.91 4.91 0 0 0-1.77 1.153 4.897 4.897 0 0 0-1.153 1.77c-.248.637-.416 1.364-.465 2.428C2.01 8.94 2 9.28 2 11.995c0 2.716.01 3.057.06 4.123.05 1.064.217 1.79.465 2.427a4.885 4.885 0 0 0 1.153 1.77 4.885 4.885 0 0 0 1.77 1.153c.636.248 1.363.417 2.427.465 1.066.05 1.407.06 4.122.06s3.055-.01 4.12-.06c1.065-.048 1.792-.217 2.428-.465a4.897 4.897 0 0 0 1.77-1.153 4.91 4.91 0 0 0 1.154-1.77c.246-.636.415-1.363.463-2.427.05-1.066.06-1.407.06-4.122s-.01-3.055-.06-4.12m-9.936-1.013a5.135 5.135 0 1 1-.002 10.27 5.135 5.135 0 0 1 .002-10.27zm0 1.8a3.332 3.332 0 1 0 0 6.666 3.332 3.332 0 0 0 0-6.666zm5.336-3.203a1.2 1.2 0 1 1 0 2.4 1.2 1.2 0 0 1 0-2.4z" stroke="#959799" fill="#959799" stroke-width="0px"></path></svg>